HIERARCHY
ROOT joint_Root
{
	OFFSET 0.0 0.0 0.0
	CHANNELS 6 Xposition Yposition Zposition Zrotation Xrotation Yrotation 
	JOINT Hips
	{
		OFFSET -17.1583 93.1646 452.98
		CHANNELS 6 Xposition Yposition Zposition Zrotation Xrotation Yrotation 
		JOINT Spine
		{
			OFFSET 15.7357 0.0 0.0
			CHANNELS 6 Xposition Yposition Zposition Zrotation Xrotation Yrotation 
			JOINT Chest
			{
				OFFSET 8.98455 -0.406207 0.0
				CHANNELS 6 Xposition Yposition Zposition Zrotation Xrotation Yrotation 
				JOINT Neck
				{
					OFFSET 16.3773 0.0 0.0
					CHANNELS 6 Xposition Yposition Zposition Zrotation Xrotation Yrotation 
					JOINT Head
					{
						OFFSET 6.45672 0.0 0.0
						CHANNELS 6 Xposition Yposition Zposition Zrotation Xrotation Yrotation 
						End Site
						{
							OFFSET 0.0 0.0 0.0
						}
					}
				}
				JOINT Shoulder_L
				{
					OFFSET 12.9942 -0.242716 4.98039
					CHANNELS 6 Xposition Yposition Zposition Zrotation Xrotation Yrotation 
					JOINT UpperArm_L
					{
						OFFSET 5.34809 0.0 0.0
						CHANNELS 6 Xposition Yposition Zposition Zrotation Xrotation Yrotation 
						JOINT LowerArm_L
						{
							OFFSET 24.3286 1.87007e-05 0.0
							CHANNELS 6 Xposition Yposition Zposition Zrotation Xrotation Yrotation 
							JOINT Hand_L
							{
								OFFSET 22.2916 0.0 0.0
								CHANNELS 6 Xposition Yposition Zposition Zrotation Xrotation Yrotation 
								End Site
								{
									OFFSET 0.0 0.0 0.0
								}
							}
						}
					}
				}
				JOINT Shoulder_R
				{
					OFFSET 12.9945 -0.242716 -4.98039
					CHANNELS 6 Xposition Yposition Zposition Zrotation Xrotation Yrotation 
					JOINT UpperArm_R
					{
						OFFSET -5.34813 0.0 0.0
						CHANNELS 6 Xposition Yposition Zposition Zrotation Xrotation Yrotation 
						JOINT LowerArm_R
						{
							OFFSET -24.3289 0.000322201 0.0
							CHANNELS 6 Xposition Yposition Zposition Zrotation Xrotation Yrotation 
							JOINT Hand_R
							{
								OFFSET -22.2915 -0.000108084 0.0
								CHANNELS 6 Xposition Yposition Zposition Zrotation Xrotation Yrotation 
								End Site
								{
									OFFSET 0.0 0.0 0.0
								}
							}
						}
					}
				}
			}
		}
		JOINT UpperLeg_L
		{
			OFFSET -2.19248 -6.46944 0.0
			CHANNELS 6 Xposition Yposition Zposition Zrotation Xrotation Yrotation 
			JOINT LowerLeg_L
			{
				OFFSET 39.0811 0.0 -1.23785e-05
				CHANNELS 6 Xposition Yposition Zposition Zrotation Xrotation Yrotation 
				JOINT Foot_L
				{
					OFFSET 40.9854 0.0 -1.26872e-05
					CHANNELS 6 Xposition Yposition Zposition Zrotation Xrotation Yrotation 
					JOINT Toes_L
					{
						OFFSET 11.7543 0.0 0.0
						CHANNELS 6 Xposition Yposition Zposition Zrotation Xrotation Yrotation 
						End Site
						{
							OFFSET 0.0 0.0 0.0
						}
					}
				}
			}
		}
		JOINT UpperLeg_R
		{
			OFFSET -2.19251 6.46944 0.0
			CHANNELS 6 Xposition Yposition Zposition Zrotation Xrotation Yrotation 
			JOINT LowerLeg_R
			{
				OFFSET -39.0811 -0.00228153 -0.0401928
				CHANNELS 6 Xposition Yposition Zposition Zrotation Xrotation Yrotation 
				JOINT Foot_R
				{
					OFFSET -40.9854 0.0 0.0
					CHANNELS 6 Xposition Yposition Zposition Zrotation Xrotation Yrotation 
					JOINT Toes_R
					{
						OFFSET -11.7543 0.0 0.0
						CHANNELS 6 Xposition Yposition Zposition Zrotation Xrotation Yrotation 
						End Site
						{
							OFFSET 0.0 0.0 0.0
						}
					}
				}
			}
		}
	}
}
MOTION
Frames:	4
Frame Time:	0.0333333
0.000000 0.000000 0.000000 0.000000 0.000000 -0.000000 3.570680 92.730600 2.435830 88.964200 0.588869 2.419680 15.735700 0.000005 -0.000001 104.772000 86.456100 -105.153000 8.984550 -0.406207 -0.000000 -0.906370 1.835610 -0.746083 16.377300 -0.000001 -0.000001 4.014960 0.958708 -1.248550 6.456720 -0.000001 -0.000000 -9.578840 -2.027050 2.702310 12.994200 -0.242716 4.980390 -94.159800 11.316600 -69.663500 5.348090 -0.000007 -0.000001 -67.891800 11.069300 -8.528330 24.328600 0.000019 0.000005 5.930870 27.733200 -12.587400 22.291600 -0.000001 0.000005 -9.836260 5.188500 2.990930 12.994500 -0.242716 -4.980390 87.315100 7.858520 -71.069100 -5.348130 -0.000001 -0.000004 -70.394600 31.970600 -3.489610 -24.328900 0.000322 -0.000009 0.738456 2.508320 -16.433600 -22.291500 -0.000108 -0.000004 0.045961 5.291220 0.317201 -2.192480 -6.469440 -0.000000 -176.303000 -10.392500 1.689850 39.081100 -0.000007 -0.000012 0.055030 -0.181753 16.845100 40.985400 -0.000006 -0.000013 3.175130 16.321200 -70.729600 11.754300 -0.000000 0.000003 -0.002755 0.205426 -8.241470 -2.192510 6.469440 -0.000001 172.034000 10.241700 -174.850000 -39.081100 -0.002282 -0.040193 -0.007017 0.057080 10.282800 -40.985400 0.000008 0.000006 -12.634800 9.064340 -65.238400 -11.754300 -0.000006 -0.000006 -0.010716 0.276578 -5.335240
0.000000 0.000000 0.000000 0.000000 0.000000 -0.000000 3.453790 92.814200 2.333660 89.067500 0.978835 1.922640 15.735700 0.000005 -0.000001 107.397000 86.598300 -107.623000 8.984550 -0.406207 -0.000000 -1.269900 2.051550 -0.428347 16.377300 -0.000001 -0.000001 3.744580 0.869455 -0.997818 6.456720 -0.000001 -0.000000 -9.638090 -2.334860 3.623900 12.994200 -0.242716 4.980390 -94.166000 11.162000 -69.380300 5.348090 -0.000007 -0.000001 -66.678600 5.584030 -12.435400 24.328600 0.000019 0.000005 4.095020 33.948200 -7.312640 22.291600 -0.000001 0.000005 -12.245800 5.302660 -0.022774 12.994500 -0.242716 -4.980390 87.439300 7.546410 -71.194400 -5.348130 -0.000001 -0.000004 -70.739400 31.834800 -2.630100 -24.328900 0.000322 -0.000009 0.672061 2.160980 -17.305400 -22.291500 -0.000108 -0.000004 -0.135062 5.295900 0.186704 -2.192480 -6.469440 -0.000000 -176.352000 -10.561200 1.428450 39.081100 -0.000007 -0.000012 0.050560 -0.174667 16.144100 40.985400 -0.000006 -0.000013 3.053500 16.887900 -70.420000 11.754300 -0.000000 0.000003 -0.002595 0.203563 -8.317280 -2.192510 6.469440 -0.000001 172.089000 10.742600 -175.328000 -39.081100 -0.002282 -0.040193 -0.004607 0.044177 10.196500 -40.985400 0.000008 0.000006 -12.636500 9.035160 -65.024200 -11.754300 -0.000006 -0.000006 -0.010274 0.273341 -5.467690
0.000000 0.000000 0.000000 0.000000 0.000000 -0.000000 3.308290 92.890800 2.213720 89.217900 1.592870 1.392340 15.735700 0.000005 -0.000001 108.442000 86.832700 -108.390000 8.984550 -0.406207 -0.000000 -1.757900 1.999160 0.134125 16.377300 -0.000001 -0.000001 3.408400 0.932207 -0.807319 6.456720 -0.000001 -0.000000 -9.590530 -2.221840 4.307700 12.994200 -0.242716 4.980390 -94.005900 10.629400 -69.210400 5.348090 -0.000007 -0.000001 -64.902500 0.181475 -16.533200 24.328600 0.000019 0.000005 1.846490 39.362300 -2.910650 22.291600 -0.000001 0.000005 -13.558200 5.368650 -1.946550 12.994500 -0.242716 -4.980390 87.567000 7.165370 -71.189200 -5.348130 -0.000001 -0.000004 -70.676500 32.248500 -2.020310 -24.328900 0.000322 -0.000009 0.807656 2.450560 -18.268200 -22.291500 -0.000108 -0.000004 -0.440728 5.300140 0.068364 -2.192480 -6.469440 -0.000000 -176.421000 -10.714400 1.079860 39.081100 -0.000007 -0.000012 0.045697 -0.164858 15.492900 40.985400 -0.000006 -0.000013 2.953240 17.706000 -70.193300 11.754300 -0.000000 0.000003 -0.002626 0.203925 -8.302560 -2.192510 6.469440 -0.000001 172.167000 11.122200 -175.757000 -39.081100 -0.002282 -0.040193 -0.002276 0.031790 10.016500 -40.985400 0.000008 0.000006 -12.564600 8.729210 -64.968600 -11.754300 -0.000006 -0.000006 -0.010640 0.276026 -5.357860
0.000000 0.000000 0.000000 0.000000 0.000000 -0.000000 3.142820 92.966200 2.100850 89.396000 2.355710 0.830132 15.735700 0.000005 -0.000001 107.202000 87.100100 -106.728000 8.984550 -0.406207 -0.000000 -2.232730 1.673420 0.979648 16.377300 -0.000001 -0.000001 2.834410 1.172540 -0.697436 6.456720 -0.000001 -0.000000 -9.685630 -1.686400 4.843850 12.994200 -0.242716 4.980390 -93.838000 10.201700 -69.254500 5.348090 -0.000007 -0.000001 -62.271400 -6.104860 -20.122100 24.328600 0.000019 0.000005 1.406590 41.084300 -2.139720 22.291600 -0.000001 0.000005 -14.592900 5.382140 -2.365950 12.994500 -0.242716 -4.980390 87.627500 6.942090 -71.079000 -5.348130 -0.000001 -0.000004 -69.963500 32.467000 -1.825770 -24.328900 0.000322 -0.000009 1.005500 2.892010 -19.199300 -22.291500 -0.000108 -0.000004 -0.855626 5.305300 -0.077139 -2.192480 -6.469440 -0.000000 -176.470000 -10.973600 0.703618 39.081100 -0.000007 -0.000012 0.037914 -0.143726 14.777800 40.985400 -0.000006 -0.000013 2.827920 18.742300 -69.828100 11.754300 -0.000000 0.000003 -0.002668 0.204418 -8.282510 -2.192510 6.469440 -0.000001 172.290000 11.308100 -176.152000 -39.081100 -0.002282 -0.040193 0.000017 0.019283 9.776220 -40.985400 0.000008 0.000006 -12.483100 8.065620 -64.940000 -11.754300 -0.000006 -0.000006 -0.010273 0.273330 -5.468140
